<?xml version="1.0"?>
<svg xmlns="http://www.w3.org/2000/svg"
     viewBox="0 0 128 128"
     version="1.2" baseProfile="tiny-ps">
  <title>gunjo.org</title>
  <style>
  path {
    fill: #1d2d67;
  }
  @media (prefers-color-scheme: dark) {
    path {
      fill: #fff;
    }
  }
  </style>
  <path d="M 64.24,0.40
           C 29.12,0.40 0.48,29.04 0.48,64.16
             0.48,99.28 29.12,127.92 64.24,127.92
             99.44,127.92 128.08,99.28 128.08,64.16
             128.08,29.04 99.44,0.40 64.24,0.40
             64.24,0.40 64.24,0.40 64.24,0.40 Z
           M 64.24,15.04
           C 80.32,15.04 94.64,22.80 103.60,34.72
             103.60,34.72 86.08,34.72 86.08,34.72
             86.08,34.72 69.84,25.44 69.84,25.44
             68.16,24.56 66.24,24.08 64.16,24.08
             61.92,24.08 59.76,24.64 58.88,25.12
             58.88,25.12 41.68,34.72 41.68,34.72
             41.68,34.72 24.96,34.72 24.96,34.72
             33.92,22.80 48.24,15.04 64.24,15.04
             64.24,15.04 64.24,15.04 64.24,15.04 Z
           M 17.68,48.56
           C 17.68,48.56 110.88,48.56 110.88,48.56
             111.84,51.44 112.56,54.48 113.04,57.60
             113.04,57.60 15.52,57.60 15.52,57.60
             16.00,54.48 16.64,51.44 17.68,48.56 Z
           M 15.52,70.72
           C 15.52,70.72 112.96,70.72 112.96,70.72
             112.56,73.84 111.84,76.88 110.88,79.76
             110.88,79.76 17.68,79.76 17.68,79.76
             16.64,76.88 16.00,73.84 15.52,70.72
             15.52,70.72 15.52,70.72 15.52,70.72 Z
           M 24.96,93.60
           C 24.96,93.60 42.48,93.60 42.48,93.60
             42.48,93.60 58.72,102.88 58.72,102.88
             60.40,103.76 62.32,104.24 64.40,104.24
             66.64,104.24 68.80,103.68 69.64,103.20
             69.64,103.20 86.88,93.60 86.88,93.60
             86.88,93.60 103.60,93.60 103.60,93.60
             94.64,105.60 80.32,113.28 64.24,113.28
             48.24,113.28 33.92,105.60 24.96,93.60
             24.96,93.60 24.96,93.60 24.96,93.60 Z" />
</svg>
