<?xml version="1.0"?>
<svg xmlns="http://www.w3.org/2000/svg" viewBox="0 0 128 128" version="1.2" baseProfile="tiny-ps">
<title>gunjo.org</title>
<path fill="#1185fe" d="m17.68 48.56c-1.04 2.88-1.68 5.92-2.16 9.04h97.52c-0.48-3.12-1.2-6.16-2.16-9.04zm46.56-33.52c-16 0-30.32 7.76-39.28 19.68h16.72l16.32-9.12v0.08c1.76-1.04 3.92-1.6 6.16-1.6 2.08 0 4 0.48 5.68 1.36l16.24 9.28h17.52c-8.96-11.92-23.28-19.68-39.36-19.68zm48.72 55.68h-97.44c0.48 3.12 1.12 6.16 2.16 9.04h93.2c0.96-2.88 1.68-5.92 2.08-9.04zm-48.72 42.56c16.08 0 30.4-7.68 39.36-19.68h-16.72l-16.4 9.12v-0.08c-1.68 1.04-3.84 1.6-6.08 1.6-2.08 0-4-0.48-5.68-1.36l-16.24-9.28h-17.52c8.96 12 23.28 19.68 39.28 19.68zm63.84-49.12c0 35.12-28.64 63.76-63.84 63.76-35.12 0-63.76-28.64-63.76-63.76s28.64-63.76 63.76-63.76c35.2 0 63.84 28.64 63.84 63.76z"/>
</svg>
